<svg width="100" height="100" viewBox="0 0 100 100" fill="none" xmlns="http://www.w3.org/2000/svg">
<rect width="100" height="100" fill="black" fill-opacity="0.92"/>
<path fill-rule="evenodd" clip-rule="evenodd" d="M100 0H0V100H100V0ZM7.59375 25.6406C6.34375 27.0469 5.71875 28.8438 5.71875 31.0312C5.71875 31.9167 5.875 33.3229 6.1875 35.25C6.5 37.1771 6.9427 39.4167 7.51562 41.9688C8.14062 44.5208 8.8177 47.3073 9.54688 50.3281C10.276 53.349 11.0573 56.3698 11.8906 59.3906C12.724 62.3594 13.5573 65.25 14.3906 68.0625C15.276 70.8229 16.1094 73.2708 16.8906 75.4062C17.724 77.5417 18.4531 79.2604 19.0781 80.5625C19.7552 81.8125 20.3281 82.4375 20.7969 82.4375C23.1927 82.4375 25.3802 81.7604 27.3594 80.4062C29.3906 79.0521 31.2135 77.2812 32.8281 75.0938C34.4427 72.8542 35.849 70.3542 37.0469 67.5938C38.2969 64.7812 39.3385 61.9688 40.1719 59.1562C41.0052 56.2917 41.6302 53.5312 42.0469 50.875C42.4635 48.1667 42.6719 45.8229 42.6719 43.8438C42.6719 40.875 42.3594 37.9583 41.7344 35.0938C41.1094 32.2292 40.0677 29.7031 38.6094 27.5156C37.2031 25.3281 35.3281 23.5833 32.9844 22.2812C30.6927 20.9271 27.8542 20.25 24.4688 20.25C22.6979 20.25 20.7188 20.4062 18.5312 20.7188C16.3438 20.9792 14.2865 21.526 12.3594 22.3594C10.4844 23.1406 8.89583 24.2344 7.59375 25.6406ZM12.5156 41.1875C12.3073 39.0521 12.2031 37.151 12.2031 35.4844V34.4688C12.2552 33.9479 12.2812 33.4271 12.2812 32.9062V31.3438C12.3333 30.875 12.3594 30.5625 12.3594 30.4062C14.1823 29.3646 16.0573 28.5312 17.9844 27.9062C19.9635 27.2292 21.9948 26.8906 24.0781 26.8906C26.6302 26.8906 28.6875 27.3854 30.25 28.375C31.8125 29.3125 33.0104 30.5885 33.8438 32.2031C34.7292 33.7656 35.3021 35.5625 35.5625 37.5938C35.8229 39.625 35.9531 41.7083 35.9531 43.8438C35.9531 46.8125 35.7448 49.4167 35.3281 51.6562C34.9635 53.8958 34.3646 56.0052 33.5312 57.9844C32.6979 59.9635 31.6302 61.9427 30.3281 63.9219C29.026 65.901 27.4896 68.1406 25.7188 70.6406C24.1562 69.7031 22.75 68.4271 21.5 66.8125C20.25 65.1458 19.1302 63.2969 18.1406 61.2656C17.151 59.2344 16.2656 57.0729 15.4844 54.7812C14.7552 52.4375 14.1302 50.1198 13.6094 47.8281C13.1406 45.5365 12.776 43.3229 12.5156 41.1875ZM44.0781 34.1562C44.026 34.7812 44 35.224 44 35.4844C44.3125 37.0469 44.5729 38.9479 44.7812 41.1875C44.9896 43.375 45.1719 45.7448 45.3281 48.2969C45.4844 50.849 45.6406 53.5052 45.7969 56.2656C46.0052 59.026 46.2656 61.7344 46.5781 64.3906C46.8906 66.9948 47.2812 69.4948 47.75 71.8906C48.2188 74.2344 48.8177 76.2917 49.5469 78.0625C50.3281 79.8333 51.2396 81.2396 52.2812 82.2812C53.3229 83.2708 54.599 83.7656 56.1094 83.7656C57.099 83.7135 57.6198 82.9844 57.6719 81.5781C57.776 80.1198 57.6458 78.1927 57.2812 75.7969C56.9688 73.349 56.5 70.5365 55.875 67.3594C55.3021 64.1823 54.8333 60.7969 54.4688 57.2031H82.6719C82.5677 61.0573 82.75 64.651 83.2188 67.9844C83.7396 71.2656 84.3906 74.1302 85.1719 76.5781C86.0052 79.026 86.8906 80.9792 87.8281 82.4375C88.8177 83.8958 89.7031 84.6771 90.4844 84.7812C91.2656 84.9375 91.9167 84.3385 92.4375 82.9844C92.9583 81.5781 93.1667 79.2604 93.0625 76.0312C93.0625 73.0625 92.8542 70.0677 92.4375 67.0469C92.0729 63.974 91.6562 60.901 91.1875 57.8281L89.9375 48.6094C89.5729 45.5365 89.3906 42.4635 89.3906 39.3906C89.3906 38.2448 89.4688 37.0729 89.625 35.875C89.8333 34.625 89.9635 33.375 90.0156 32.125C90.1198 30.875 90.0938 29.6771 89.9375 28.5312C89.7812 27.3333 89.3646 26.2396 88.6875 25.25C86.8646 25.25 85.4844 25.5885 84.5469 26.2656C83.6094 26.9427 82.9062 27.8281 82.4375 28.9219C82.0208 30.0156 81.7865 31.2917 81.7344 32.75C81.7344 34.1562 81.7865 35.6146 81.8906 37.125C82.0469 38.5833 82.2031 40.0156 82.3594 41.4219C82.5156 42.8281 82.5417 44.0781 82.4375 45.1719C82.3854 46.2656 82.125 47.151 81.6562 47.8281C81.1875 48.5052 80.4062 48.8438 79.3125 48.8438H52.5156C52.099 48.4792 51.8125 47.75 51.6562 46.6562C51.5 45.5625 51.3958 44.3125 51.3438 42.9062C51.2917 41.4479 51.2656 39.8854 51.2656 38.2188C51.2656 36.5521 51.2135 34.9635 51.1094 33.4531C51.0052 31.9427 50.8229 30.5885 50.5625 29.3906C50.3542 28.1927 49.9896 27.3333 49.4688 26.8125C48.9479 26.2396 48.2448 26.0833 47.3594 26.3438C46.526 26.6042 45.4583 27.4375 44.1562 28.8438V30.0938C44.1042 30.7188 44.0781 31.3958 44.0781 32.125V34.1562Z" fill="#F39C12" fill-opacity="0.92"/>
</svg>
